<svg xmlns="http://www.w3.org/2000/svg" width="192" height="192" viewBox="0 0 100 100">
    <g fill="#f38181">
        <path
            d="M79.5 92.9l-19-19H38.4c-1.8 0-3.6-0.3-5.6-1l-3.6-1.2 10.3-10.3h22.2c11.5 0 20.9-9.4 20.9-20.9V23l3.6 2.1c5.5 3.2 8.9 9.1 8.9 15.4V56c0 9.1-6.8 16.6-15.5 17.7V92.9zM38.4 69.1C38.4 69.1 38.4 69.1 38.4 69.1h24.1l12.3 12.3V69.1h2.4c7.2 0 13.1-5.9 13.1-13.1V40.5c0-3.1-1.1-6-3-8.3v8.3c0 14.1-11.5 25.6-25.6 25.6H41.4L38.4 69.1zM20.5 77.4V58.2C11.8 57.1 5 49.6 5 40.5V25c0-9.9 8-17.9 17.9-17.9h38.8c9.9 0 17.9 8 17.9 17.9v15.5c0 9.9-8 17.9-17.9 17.9H39.5L20.5 77.4zM22.9 11.9c-7.2 0-13.1 5.9-13.1 13.1v15.5c0 7.2 5.9 13.1 13.1 13.1h2.4v12.3l12.3-12.3h24.1c7.2 0 13.1-5.9 13.1-13.1V25c0-7.2-5.9-13.1-13.1-13.1H22.9z" />
    </g>
</svg>